<svg width="60" height="57" viewBox="0 0 60 57" fill="none" xmlns="http://www.w3.org/2000/svg">
<g clip-path="url(#clip0)">
<path d="M28.8848 56.6322C44.3487 56.6322 56.8848 44.0962 56.8848 28.6322C56.8848 13.1682 44.3487 0.632202 28.8848 0.632202C13.4208 0.632202 0.884766 13.1682 0.884766 28.6322C0.884766 44.0962 13.4208 56.6322 28.8848 56.6322Z" fill="#E0E0E0"/>
<path d="M58.8848 7.6322H6.88477V46.6322H58.8848V7.6322Z" fill="white"/>
<path d="M53.8848 46.6322H24.8848" stroke="#58B9FF" stroke-width="2" stroke-miterlimit="10"/>
<path d="M58.8848 43.6322V46.6322H55.8848" stroke="#58B9FF" stroke-width="2" stroke-miterlimit="10"/>
<path d="M58.8848 12.6322V41.6322" stroke="#58B9FF" stroke-width="2" stroke-miterlimit="10"/>
<path d="M55.8848 7.6322H58.8848V10.6322" stroke="#58B9FF" stroke-width="2" stroke-miterlimit="10"/>
<path d="M11.8848 7.6322H53.8848" stroke="#58B9FF" stroke-width="2" stroke-miterlimit="10"/>
<path d="M6.88477 10.6322V7.6322H9.88477" stroke="#58B9FF" stroke-width="2" stroke-miterlimit="10"/>
<path d="M10.8848 46.6322H6.88477V12.6322" stroke="#58B9FF" stroke-width="2" stroke-miterlimit="10"/>
<path d="M11.8848 24.7322C11.3848 24.2322 10.8848 23.6322 10.8848 22.8322C10.8848 21.2322 12.8848 20.0322 12.8848 18.4322C12.8848 16.8322 9.88477 13.1322 11.2848 12.0322C12.4848 10.8322 16.5848 13.7322 18.2848 13.7322C19.9848 13.7322 21.3848 11.6322 23.0848 11.6322C24.7848 11.6322 26.1848 13.7322 27.8848 13.7322C29.5848 13.7322 30.9848 11.6322 32.6848 11.6322C34.3848 11.6322 35.7848 13.7322 37.4848 13.7322C39.1848 13.7322 40.5848 11.6322 42.2848 11.6322C43.9848 11.6322 45.3848 13.7322 47.0848 13.7322C48.7848 13.7322 53.4848 10.7322 54.5848 12.0322C55.7848 13.1322 52.9848 16.9322 52.9848 18.4322C52.9848 20.0322 54.9848 21.3322 54.9848 22.8322C54.9848 24.4322 52.9848 25.5322 52.9848 27.1322C52.9848 28.7322 54.9848 29.8322 54.9848 31.4322C54.9848 33.0322 52.9848 34.3322 52.9848 35.8322C52.9848 37.4322 55.7848 41.2322 54.5848 42.3322C53.4848 43.4322 48.7848 40.7322 47.0848 40.7322C45.3848 40.7322 43.9848 42.7322 42.2848 42.7322C40.5848 42.7322 39.1848 40.7322 37.4848 40.7322C35.7848 40.7322 34.3848 42.6322 32.6848 42.6322C30.9848 42.6322 29.5848 40.6322 27.8848 40.6322H26.8848" stroke="#58B9FF" stroke-width="2" stroke-miterlimit="10"/>
<path d="M13.8848 37.6322V52.6322L17.8848 49.6322L21.8848 52.6322V37.6322H13.8848Z" fill="white"/>
<path d="M21.8848 37.6322V52.6322L17.8848 49.6322L13.8848 52.6322V37.6322" stroke="#58B9FF" stroke-width="2" stroke-miterlimit="10" stroke-linejoin="round"/>
<path d="M17.8848 38.6322C21.7508 38.6322 24.8848 35.4982 24.8848 31.6322C24.8848 27.7662 21.7508 24.6322 17.8848 24.6322C14.0188 24.6322 10.8848 27.7662 10.8848 31.6322C10.8848 35.4982 14.0188 38.6322 17.8848 38.6322Z" stroke="#58B9FF" stroke-width="2" stroke-miterlimit="10" stroke-linejoin="round"/>
<path opacity="0.4" d="M17.8848 38.6322C21.7508 38.6322 24.8848 35.4982 24.8848 31.6322C24.8848 27.7662 21.7508 24.6322 17.8848 24.6322C14.0188 24.6322 10.8848 27.7662 10.8848 31.6322C10.8848 35.4982 14.0188 38.6322 17.8848 38.6322Z" fill="#58B9FF"/>
<path d="M28.8848 22.6322H44.8848" stroke="#58B9FF" stroke-width="2" stroke-miterlimit="10" stroke-linejoin="round"/>
<path d="M28.8848 26.6322H44.8848" stroke="#58B9FF" stroke-width="2" stroke-miterlimit="10" stroke-linejoin="round"/>
<path d="M28.8848 30.6322H39.8848" stroke="#58B9FF" stroke-width="2" stroke-miterlimit="10" stroke-linejoin="round"/>
</g>
<defs>
<clipPath id="clip0">
<rect x="0.884766" y="0.632202" width="59" height="56" rx="4" fill="white"/>
</clipPath>
</defs>
</svg>
